<svg xmlns="http://www.w3.org/2000/svg" xmlns:xlink="http://www.w3.org/1999/xlink" width="500" zoomAndPan="magnify" viewBox="0 0 375 374.999991" height="500" preserveAspectRatio="xMidYMid meet" version="1.0"><defs><g/><clipPath id="1fe5b556f4"><path d="M 229 30 L 282 30 L 282 108 L 229 108 Z M 229 30 " clip-rule="nonzero"/></clipPath><clipPath id="2f50a00f28"><rect x="0" width="282" y="0" height="130"/></clipPath><clipPath id="90ce985a35"><path d="M 139 30 L 191.398438 30 L 191.398438 108 L 139 108 Z M 139 30 " clip-rule="nonzero"/></clipPath><clipPath id="d833c6b0ce"><rect x="0" width="192" y="0" height="130"/></clipPath><clipPath id="ec79c5d3c1"><path d="M 8 87 L 136 87 L 136 279 L 8 279 Z M 8 87 " clip-rule="nonzero"/></clipPath><clipPath id="fbee2661c3"><path d="M -5.847656 100.230469 L 108.582031 75.847656 L 149.070312 265.832031 L 34.636719 290.214844 Z M -5.847656 100.230469 " clip-rule="nonzero"/></clipPath><clipPath id="da37b65e8a"><path d="M -5.847656 100.230469 L 108.582031 75.847656 L 149.070312 265.832031 L 34.636719 290.214844 Z M -5.847656 100.230469 " clip-rule="nonzero"/></clipPath><clipPath id="99d717524c"><path d="M 8 87 L 136 87 L 136 278 L 8 278 Z M 8 87 " clip-rule="nonzero"/></clipPath><clipPath id="0f00706a34"><path d="M -5.847656 100.230469 L 108.582031 75.847656 L 149.070312 265.832031 L 34.636719 290.214844 Z M -5.847656 100.230469 " clip-rule="nonzero"/></clipPath><clipPath id="ab5dd3b21a"><path d="M -5.847656 100.230469 L 108.582031 75.847656 L 149.070312 265.832031 L 34.636719 290.214844 Z M -5.847656 100.230469 " clip-rule="nonzero"/></clipPath><clipPath id="9a2ba59c80"><path d="M 8 87 L 136 87 L 136 279 L 8 279 Z M 8 87 " clip-rule="nonzero"/></clipPath><clipPath id="ac6e22634c"><path d="M -5.847656 100.230469 L 108.582031 75.847656 L 149.070312 265.832031 L 34.636719 290.214844 Z M -5.847656 100.230469 " clip-rule="nonzero"/></clipPath><clipPath id="bbb27f5f2c"><path d="M -5.847656 100.230469 L 108.582031 75.847656 L 149.070312 265.832031 L 34.636719 290.214844 Z M -5.847656 100.230469 " clip-rule="nonzero"/></clipPath><clipPath id="b628f5c08e"><path d="M 15 150 L 131 150 L 131 223 L 15 223 Z M 15 150 " clip-rule="nonzero"/></clipPath><clipPath id="22583d93fc"><path d="M -5.847656 100.230469 L 108.582031 75.847656 L 149.070312 265.832031 L 34.636719 290.214844 Z M -5.847656 100.230469 " clip-rule="nonzero"/></clipPath><clipPath id="3f38115c90"><path d="M -5.847656 100.230469 L 108.582031 75.847656 L 149.070312 265.832031 L 34.636719 290.214844 Z M -5.847656 100.230469 " clip-rule="nonzero"/></clipPath><clipPath id="5f6a3888f5"><path d="M 15 150 L 132 150 L 132 225 L 15 225 Z M 15 150 " clip-rule="nonzero"/></clipPath><clipPath id="582c88446a"><path d="M -5.847656 100.230469 L 108.582031 75.847656 L 149.070312 265.832031 L 34.636719 290.214844 Z M -5.847656 100.230469 " clip-rule="nonzero"/></clipPath><clipPath id="b3b3f51608"><path d="M -5.847656 100.230469 L 108.582031 75.847656 L 149.070312 265.832031 L 34.636719 290.214844 Z M -5.847656 100.230469 " clip-rule="nonzero"/></clipPath><clipPath id="c9d439b522"><rect x="0" width="45" y="0" height="82"/></clipPath></defs><g transform="matrix(1, 0, 0, 1, 90, 66)"><g clip-path="url(#2f50a00f28)"><g fill="#004aad" fill-opacity="1"><g transform="translate(0.357084, 103.966467)"><g><path d="M 5.21875 -73.734375 L 24.621094 -73.734375 C 33.015625 -73.734375 39.460938 -72.179688 43.964844 -69.066406 C 48.847656 -65.691406 51.289062 -59.953125 51.289062 -51.855469 C 51.289062 -46.699219 50.589844 -42.523438 49.1875 -39.324219 C 47.644531 -35.792969 44.851562 -33.070312 40.808594 -31.15625 L 39.414062 -34.105469 L 42.550781 -34.992188 L 53.382812 3.261719 L 30.414062 3.261719 L 22.0625 -30.804688 L 25.230469 -31.582031 L 25.230469 -28.320312 L 20.792969 -28.320312 L 20.792969 -31.582031 L 24.054688 -31.582031 L 24.054688 3.261719 L 1.957031 3.261719 L 1.957031 -73.734375 Z M 5.21875 -67.210938 L 5.21875 -70.472656 L 8.484375 -70.472656 L 8.484375 0 L 5.21875 0 L 5.21875 -3.261719 L 20.792969 -3.261719 L 20.792969 0 L 17.53125 0 L 17.53125 -34.84375 L 27.789062 -34.84375 L 36.144531 -0.777344 L 32.972656 0 L 32.972656 -3.261719 L 49.070312 -3.261719 L 49.070312 0 L 45.929688 0.890625 L 35.519531 -35.871094 L 38.015625 -37.054688 C 40.585938 -38.273438 42.316406 -39.898438 43.210938 -41.9375 C 44.246094 -44.304688 44.761719 -47.609375 44.761719 -51.855469 C 44.761719 -57.671875 43.261719 -61.621094 40.253906 -63.699219 C 36.867188 -66.039062 31.65625 -67.210938 24.621094 -67.210938 Z M 25.144531 -43.804688 C 27.191406 -43.804688 28.511719 -44.199219 29.109375 -44.988281 C 29.917969 -46.058594 30.320312 -47.882812 30.320312 -50.460938 C 30.320312 -52.945312 29.949219 -54.699219 29.203125 -55.71875 C 28.695312 -56.417969 27.574219 -56.769531 25.839844 -56.769531 L 20.792969 -56.769531 L 20.792969 -60.03125 L 24.054688 -60.03125 L 24.054688 -40.542969 L 20.792969 -40.542969 L 20.792969 -43.804688 Z M 25.144531 -37.28125 L 17.53125 -37.28125 L 17.53125 -63.292969 L 25.839844 -63.292969 C 29.789062 -63.292969 32.671875 -62.050781 34.480469 -59.558594 C 36.058594 -57.390625 36.847656 -54.359375 36.847656 -50.460938 C 36.847656 -46.425781 36.003906 -43.292969 34.316406 -41.058594 C 32.417969 -38.539062 29.359375 -37.28125 25.144531 -37.28125 Z M 25.144531 -37.28125 "/></g></g></g><g fill="#004aad" fill-opacity="1"><g transform="translate(52.549735, 103.966467)"><g><path d="M 5.21875 -73.734375 L 40.152344 -73.734375 L 40.152344 -56.59375 L 20.792969 -56.59375 L 20.792969 -59.859375 L 24.054688 -59.859375 L 24.054688 -42.371094 L 20.792969 -42.371094 L 20.792969 -45.632812 L 36.324219 -45.632812 L 36.324219 -28.320312 L 20.792969 -28.320312 L 20.792969 -31.582031 L 24.054688 -31.582031 L 24.054688 -10.527344 L 20.792969 -10.527344 L 20.792969 -13.789062 L 40.324219 -13.789062 L 40.324219 3.261719 L 1.957031 3.261719 L 1.957031 -73.734375 Z M 5.21875 -67.210938 L 5.21875 -70.472656 L 8.484375 -70.472656 L 8.484375 0 L 5.21875 0 L 5.21875 -3.261719 L 37.0625 -3.261719 L 37.0625 0 L 33.800781 0 L 33.800781 -10.527344 L 37.0625 -10.527344 L 37.0625 -7.265625 L 17.53125 -7.265625 L 17.53125 -34.84375 L 33.0625 -34.84375 L 33.0625 -31.582031 L 29.796875 -31.582031 L 29.796875 -42.371094 L 33.0625 -42.371094 L 33.0625 -39.109375 L 17.53125 -39.109375 L 17.53125 -63.121094 L 36.890625 -63.121094 L 36.890625 -59.859375 L 33.625 -59.859375 L 33.625 -70.472656 L 36.890625 -70.472656 L 36.890625 -67.210938 Z M 5.21875 -67.210938 "/></g></g></g><g fill="#004aad" fill-opacity="1"><g transform="translate(91.433257, 103.966467)"><g><path d="M 5.21875 -73.734375 L 28.886719 -73.734375 C 36.078125 -73.734375 41.535156 -71.609375 45.257812 -67.359375 C 48.871094 -63.234375 50.679688 -57.457031 50.679688 -50.027344 C 50.679688 -41.457031 48.5 -35.382812 44.136719 -31.800781 C 39.96875 -28.378906 34.273438 -26.667969 27.058594 -26.667969 L 20.792969 -26.667969 L 20.792969 -29.929688 L 24.054688 -29.929688 L 24.054688 3.261719 L 1.957031 3.261719 L 1.957031 -73.734375 Z M 5.21875 -67.210938 L 5.21875 -70.472656 L 8.484375 -70.472656 L 8.484375 0 L 5.21875 0 L 5.21875 -3.261719 L 20.792969 -3.261719 L 20.792969 0 L 17.53125 0 L 17.53125 -33.191406 L 27.058594 -33.191406 C 32.71875 -33.191406 37.03125 -34.410156 39.996094 -36.84375 C 42.769531 -39.121094 44.152344 -43.515625 44.152344 -50.027344 C 44.152344 -55.820312 42.886719 -60.164062 40.351562 -63.058594 C 37.925781 -65.824219 34.105469 -67.210938 28.886719 -67.210938 Z M 26.015625 -44.066406 C 26.957031 -44.066406 27.6875 -44.171875 28.207031 -44.378906 C 28.449219 -44.472656 28.605469 -44.582031 28.679688 -44.699219 C 29.25 -45.621094 29.539062 -47.484375 29.539062 -50.289062 C 29.539062 -52.835938 29.246094 -54.613281 28.667969 -55.617188 C 28.605469 -55.722656 28.457031 -55.824219 28.222656 -55.921875 C 27.6875 -56.140625 26.921875 -56.246094 25.925781 -56.246094 L 20.792969 -56.246094 L 20.792969 -59.511719 L 24.054688 -59.511719 L 24.054688 -40.804688 L 20.792969 -40.804688 L 20.792969 -44.066406 Z M 26.015625 -37.542969 L 17.53125 -37.542969 L 17.53125 -62.773438 L 25.925781 -62.773438 C 30.023438 -62.773438 32.824219 -61.476562 34.320312 -58.878906 C 35.480469 -56.867188 36.0625 -54.003906 36.0625 -50.289062 C 36.0625 -46.246094 35.449219 -43.238281 34.222656 -41.261719 C 32.6875 -38.78125 29.949219 -37.542969 26.015625 -37.542969 Z M 26.015625 -37.542969 "/></g></g></g><g fill="#004aad" fill-opacity="1"><g transform="translate(141.103253, 103.966467)"><g><path d="M 11.570312 -55.636719 L -2.304688 -55.636719 L -2.304688 -73.734375 L 41.023438 -73.734375 L 41.023438 -55.636719 L 27.230469 -55.636719 L 27.230469 -58.902344 L 30.496094 -58.902344 L 30.496094 3.261719 L 8.308594 3.261719 L 8.308594 -58.902344 L 11.570312 -58.902344 Z M 14.835938 -62.164062 L 14.835938 0 L 11.570312 0 L 11.570312 -3.261719 L 27.230469 -3.261719 L 27.230469 0 L 23.96875 0 L 23.96875 -62.164062 L 37.757812 -62.164062 L 37.757812 -58.902344 L 34.496094 -58.902344 L 34.496094 -70.472656 L 37.757812 -70.472656 L 37.757812 -67.210938 L 0.957031 -67.210938 L 0.957031 -70.472656 L 4.21875 -70.472656 L 4.21875 -58.902344 L 0.957031 -58.902344 L 0.957031 -62.164062 Z M 14.835938 -62.164062 "/></g></g></g><g fill="#004aad" fill-opacity="1"><g transform="translate(179.812796, 103.966467)"><g><path d="M 5.21875 -73.734375 L 24.621094 -73.734375 C 33.015625 -73.734375 39.460938 -72.179688 43.964844 -69.066406 C 48.847656 -65.691406 51.289062 -59.953125 51.289062 -51.855469 C 51.289062 -46.699219 50.589844 -42.523438 49.1875 -39.324219 C 47.644531 -35.792969 44.851562 -33.070312 40.808594 -31.15625 L 39.414062 -34.105469 L 42.550781 -34.992188 L 53.382812 3.261719 L 30.414062 3.261719 L 22.0625 -30.804688 L 25.230469 -31.582031 L 25.230469 -28.320312 L 20.792969 -28.320312 L 20.792969 -31.582031 L 24.054688 -31.582031 L 24.054688 3.261719 L 1.957031 3.261719 L 1.957031 -73.734375 Z M 5.21875 -67.210938 L 5.21875 -70.472656 L 8.484375 -70.472656 L 8.484375 0 L 5.21875 0 L 5.21875 -3.261719 L 20.792969 -3.261719 L 20.792969 0 L 17.53125 0 L 17.53125 -34.84375 L 27.789062 -34.84375 L 36.144531 -0.777344 L 32.972656 0 L 32.972656 -3.261719 L 49.070312 -3.261719 L 49.070312 0 L 45.929688 0.890625 L 35.519531 -35.871094 L 38.015625 -37.054688 C 40.585938 -38.273438 42.316406 -39.898438 43.210938 -41.9375 C 44.246094 -44.304688 44.761719 -47.609375 44.761719 -51.855469 C 44.761719 -57.671875 43.261719 -61.621094 40.253906 -63.699219 C 36.867188 -66.039062 31.65625 -67.210938 24.621094 -67.210938 Z M 25.144531 -43.804688 C 27.191406 -43.804688 28.511719 -44.199219 29.109375 -44.988281 C 29.917969 -46.058594 30.320312 -47.882812 30.320312 -50.460938 C 30.320312 -52.945312 29.949219 -54.699219 29.203125 -55.71875 C 28.695312 -56.417969 27.574219 -56.769531 25.839844 -56.769531 L 20.792969 -56.769531 L 20.792969 -60.03125 L 24.054688 -60.03125 L 24.054688 -40.542969 L 20.792969 -40.542969 L 20.792969 -43.804688 Z M 25.144531 -37.28125 L 17.53125 -37.28125 L 17.53125 -63.292969 L 25.839844 -63.292969 C 29.789062 -63.292969 32.671875 -62.050781 34.480469 -59.558594 C 36.058594 -57.390625 36.847656 -54.359375 36.847656 -50.460938 C 36.847656 -46.425781 36.003906 -43.292969 34.316406 -41.058594 C 32.417969 -38.539062 29.359375 -37.28125 25.144531 -37.28125 Z M 25.144531 -37.28125 "/></g></g></g><g clip-path="url(#1fe5b556f4)"><g fill="#004aad" fill-opacity="1"><g transform="translate(232.005448, 103.966467)"><g><path d="M 15.136719 -73.734375 L 35.597656 -73.734375 L 49.953125 3.261719 L 28.882812 3.261719 L 26.097656 -14.367188 L 29.320312 -14.878906 L 29.320312 -11.613281 L 18.964844 -11.613281 L 18.964844 -14.878906 L 22.1875 -14.351562 L 19.300781 3.261719 L -2.109375 3.261719 L 12.433594 -73.734375 Z M 15.136719 -67.210938 L 15.136719 -70.472656 L 18.34375 -69.867188 L 5.03125 0.605469 L 1.828125 0 L 1.828125 -3.261719 L 16.53125 -3.261719 L 16.53125 0 L 13.3125 -0.527344 L 16.195312 -18.140625 L 32.109375 -18.140625 L 34.890625 -0.507812 L 31.667969 0 L 31.667969 -3.261719 L 46.023438 -3.261719 L 46.023438 0 L 42.816406 0.597656 L 29.679688 -69.875 L 32.886719 -70.472656 L 32.886719 -67.210938 Z M 24.609375 -23.746094 L 20.867188 -51.238281 L 24.101562 -51.679688 L 27.332031 -51.238281 L 23.589844 -23.746094 L 20.359375 -24.1875 L 20.359375 -27.449219 L 27.839844 -27.449219 L 27.839844 -24.1875 Z M 31.578125 -20.925781 L 16.621094 -20.925781 L 20.867188 -52.121094 L 27.332031 -52.121094 L 31.074219 -24.625 Z M 31.578125 -20.925781 "/></g></g></g></g><g fill="#ffffff" fill-opacity="1"><g transform="translate(0.357084, 103.966467)"><g><path d="M 5.21875 -70.46875 L 24.625 -70.46875 C 32.332031 -70.46875 38.160156 -69.101562 42.109375 -66.375 C 46.054688 -63.65625 48.03125 -58.816406 48.03125 -51.859375 C 48.03125 -47.160156 47.421875 -43.414062 46.203125 -40.625 C 44.984375 -37.84375 42.71875 -35.671875 39.40625 -34.109375 L 49.0625 0 L 32.96875 0 L 25.234375 -31.578125 L 20.796875 -31.578125 L 20.796875 0 L 5.21875 0 Z M 25.140625 -40.546875 C 28.273438 -40.546875 30.460938 -41.367188 31.703125 -43.015625 C 32.953125 -44.671875 33.578125 -47.148438 33.578125 -50.453125 C 33.578125 -53.648438 33 -56.046875 31.84375 -57.640625 C 30.6875 -59.234375 28.6875 -60.03125 25.84375 -60.03125 L 20.796875 -60.03125 L 20.796875 -40.546875 Z M 25.140625 -40.546875 "/></g></g></g><g fill="#ffffff" fill-opacity="1"><g transform="translate(52.549735, 103.966467)"><g><path d="M 5.21875 -70.46875 L 36.890625 -70.46875 L 36.890625 -59.859375 L 20.796875 -59.859375 L 20.796875 -42.375 L 33.0625 -42.375 L 33.0625 -31.578125 L 20.796875 -31.578125 L 20.796875 -10.53125 L 37.0625 -10.53125 L 37.0625 0 L 5.21875 0 Z M 5.21875 -70.46875 "/></g></g></g><g fill="#ffffff" fill-opacity="1"><g transform="translate(91.433257, 103.966467)"><g><path d="M 5.21875 -70.46875 L 28.890625 -70.46875 C 35.085938 -70.46875 39.722656 -68.710938 42.796875 -65.203125 C 45.878906 -61.691406 47.421875 -56.632812 47.421875 -50.03125 C 47.421875 -42.488281 45.632812 -37.25 42.0625 -34.3125 C 38.5 -31.382812 33.5 -29.921875 27.0625 -29.921875 L 20.796875 -29.921875 L 20.796875 0 L 5.21875 0 Z M 26.015625 -40.796875 C 28.742188 -40.796875 30.554688 -41.519531 31.453125 -42.96875 C 32.347656 -44.425781 32.796875 -46.863281 32.796875 -50.28125 C 32.796875 -53.414062 32.359375 -55.738281 31.484375 -57.25 C 30.617188 -58.757812 28.765625 -59.515625 25.921875 -59.515625 L 20.796875 -59.515625 L 20.796875 -40.796875 Z M 26.015625 -40.796875 "/></g></g></g><g fill="#ffffff" fill-opacity="1"><g transform="translate(141.103253, 103.966467)"><g><path d="M 11.578125 -58.90625 L 0.953125 -58.90625 L 0.953125 -70.46875 L 37.765625 -70.46875 L 37.765625 -58.90625 L 27.234375 -58.90625 L 27.234375 0 L 11.578125 0 Z M 11.578125 -58.90625 "/></g></g></g><g fill="#ffffff" fill-opacity="1"><g transform="translate(179.812796, 103.966467)"><g><path d="M 5.21875 -70.46875 L 24.625 -70.46875 C 32.332031 -70.46875 38.160156 -69.101562 42.109375 -66.375 C 46.054688 -63.65625 48.03125 -58.816406 48.03125 -51.859375 C 48.03125 -47.160156 47.421875 -43.414062 46.203125 -40.625 C 44.984375 -37.84375 42.71875 -35.671875 39.40625 -34.109375 L 49.0625 0 L 32.96875 0 L 25.234375 -31.578125 L 20.796875 -31.578125 L 20.796875 0 L 5.21875 0 Z M 25.140625 -40.546875 C 28.273438 -40.546875 30.460938 -41.367188 31.703125 -43.015625 C 32.953125 -44.671875 33.578125 -47.148438 33.578125 -50.453125 C 33.578125 -53.648438 33 -56.046875 31.84375 -57.640625 C 30.6875 -59.234375 28.6875 -60.03125 25.84375 -60.03125 L 20.796875 -60.03125 L 20.796875 -40.546875 Z M 25.140625 -40.546875 "/></g></g></g><g fill="#ffffff" fill-opacity="1"><g transform="translate(232.005448, 103.966467)"><g><path d="M 15.140625 -70.46875 L 32.890625 -70.46875 L 46.015625 0 L 31.671875 0 L 29.3125 -14.875 L 18.96875 -14.875 L 16.53125 0 L 1.828125 0 Z M 27.84375 -24.1875 L 24.09375 -51.671875 L 20.359375 -24.1875 Z M 27.84375 -24.1875 "/></g></g></g></g></g><g transform="matrix(1, 0, 0, 1, 129, 156)"><g clip-path="url(#d833c6b0ce)"><g fill="#004aad" fill-opacity="1"><g transform="translate(0.852828, 104.380176)"><g><path d="M 25.40625 4.308594 C 16.703125 4.308594 10.414062 1.882812 6.542969 -2.964844 C 2.847656 -7.59375 1 -14.085938 1 -22.445312 L 1 -47.851562 C 1 -56.390625 2.835938 -62.941406 6.503906 -67.511719 C 10.347656 -72.300781 16.648438 -74.691406 25.40625 -74.691406 C 33.761719 -74.691406 39.804688 -72.550781 43.527344 -68.261719 C 47.136719 -64.109375 48.9375 -58.378906 48.9375 -51.070312 L 48.9375 -41.71875 L 27.1875 -41.71875 L 27.1875 -52.027344 C 27.1875 -54.335938 26.976562 -56.019531 26.550781 -57.082031 C 26.5625 -57.054688 26.574219 -57.039062 26.59375 -57.03125 C 26.371094 -57.144531 25.972656 -57.203125 25.40625 -57.203125 C 24.605469 -57.203125 24.144531 -57.074219 24.027344 -56.816406 C 23.523438 -55.707031 23.273438 -54.023438 23.273438 -51.765625 L 23.273438 -18.617188 C 23.273438 -16.339844 23.523438 -14.6875 24.027344 -13.660156 C 24.15625 -13.398438 24.613281 -13.269531 25.40625 -13.269531 C 26.09375 -13.269531 26.464844 -13.335938 26.519531 -13.464844 C 26.964844 -14.546875 27.1875 -16.265625 27.1875 -18.617188 L 27.1875 -29.277344 L 48.9375 -29.277344 L 48.9375 -19.921875 C 48.9375 -12.523438 47.148438 -6.679688 43.570312 -2.390625 C 39.84375 2.074219 33.789062 4.308594 25.40625 4.308594 Z M 25.40625 -2.21875 C 31.753906 -2.21875 36.136719 -3.667969 38.558594 -6.570312 C 41.128906 -9.648438 42.414062 -14.101562 42.414062 -19.921875 L 42.414062 -26.015625 L 45.675781 -26.015625 L 45.675781 -22.75 L 30.449219 -22.75 L 30.449219 -26.015625 L 33.714844 -26.015625 L 33.714844 -18.617188 C 33.714844 -15.402344 33.328125 -12.859375 32.554688 -10.980469 C 31.953125 -9.523438 30.964844 -8.421875 29.589844 -7.683594 C 28.421875 -7.058594 27.023438 -6.742188 25.40625 -6.742188 C 23.804688 -6.742188 22.410156 -7.046875 21.222656 -7.660156 C 19.867188 -8.359375 18.847656 -9.402344 18.167969 -10.789062 C 17.222656 -12.71875 16.746094 -15.328125 16.746094 -18.617188 L 16.746094 -51.765625 C 16.746094 -54.960938 17.191406 -57.542969 18.082031 -59.507812 C 18.738281 -60.953125 19.753906 -62.042969 21.136719 -62.773438 C 22.339844 -63.410156 23.761719 -63.730469 25.40625 -63.730469 C 27.039062 -63.730469 28.441406 -63.425781 29.609375 -62.816406 C 31.019531 -62.082031 32.019531 -60.976562 32.609375 -59.503906 C 33.347656 -57.664062 33.714844 -55.171875 33.714844 -52.027344 L 33.714844 -44.980469 L 30.449219 -44.980469 L 30.449219 -48.242188 L 45.675781 -48.242188 L 45.675781 -44.980469 L 42.414062 -44.980469 L 42.414062 -51.070312 C 42.414062 -56.753906 41.144531 -61.058594 38.601562 -63.980469 C 36.179688 -66.773438 31.78125 -68.167969 25.40625 -68.167969 C 18.734375 -68.167969 14.128906 -66.585938 11.59375 -63.425781 C 8.882812 -60.050781 7.527344 -54.859375 7.527344 -47.851562 L 7.527344 -22.445312 C 7.527344 -15.609375 8.898438 -10.472656 11.640625 -7.039062 C 14.207031 -3.824219 18.796875 -2.21875 25.40625 -2.21875 Z M 25.40625 -2.21875 "/></g></g></g><g fill="#004aad" fill-opacity="1"><g transform="translate(49.826926, 104.380176)"><g><path d="M 5.21875 -73.734375 L 24.054688 -73.734375 L 24.054688 -41.675781 L 20.792969 -41.675781 L 17.777344 -42.914062 L 30.4375 -73.734375 L 52.714844 -73.734375 L 37.820312 -37.390625 L 34.800781 -38.628906 L 37.878906 -39.71875 L 53.074219 3.261719 L 30.261719 3.261719 L 19.34375 -30.132812 L 22.445312 -31.148438 L 25.253906 -29.480469 L 23.597656 -26.695312 L 20.792969 -28.363281 L 24.054688 -28.363281 L 24.054688 3.261719 L 1.957031 3.261719 L 1.957031 -73.734375 Z M 5.21875 -67.210938 L 5.21875 -70.472656 L 8.484375 -70.472656 L 8.484375 0 L 5.21875 0 L 5.21875 -3.261719 L 20.792969 -3.261719 L 20.792969 0 L 17.53125 0 L 17.53125 -29.257812 L 23.3125 -38.996094 L 35.726562 -1.011719 L 32.625 0 L 32.625 -3.261719 L 48.460938 -3.261719 L 48.460938 0 L 45.382812 1.085938 L 31.308594 -38.714844 L 44.832031 -71.710938 L 47.851562 -70.472656 L 47.851562 -67.210938 L 32.625 -67.210938 L 32.625 -70.472656 L 35.644531 -69.230469 L 23.8125 -40.433594 L 17.53125 -41.675781 L 17.53125 -70.472656 L 20.792969 -70.472656 L 20.792969 -67.210938 Z M 5.21875 -67.210938 "/></g></g></g><g fill="#004aad" fill-opacity="1"><g transform="translate(99.148981, 104.380176)"><g><path d="M 5.21875 -73.734375 L 40.152344 -73.734375 L 40.152344 -56.59375 L 20.792969 -56.59375 L 20.792969 -59.859375 L 24.054688 -59.859375 L 24.054688 -42.371094 L 20.792969 -42.371094 L 20.792969 -45.632812 L 36.324219 -45.632812 L 36.324219 -28.320312 L 20.792969 -28.320312 L 20.792969 -31.582031 L 24.054688 -31.582031 L 24.054688 -10.527344 L 20.792969 -10.527344 L 20.792969 -13.789062 L 40.324219 -13.789062 L 40.324219 3.261719 L 1.957031 3.261719 L 1.957031 -73.734375 Z M 5.21875 -67.210938 L 5.21875 -70.472656 L 8.484375 -70.472656 L 8.484375 0 L 5.21875 0 L 5.21875 -3.261719 L 37.0625 -3.261719 L 37.0625 0 L 33.800781 0 L 33.800781 -10.527344 L 37.0625 -10.527344 L 37.0625 -7.265625 L 17.53125 -7.265625 L 17.53125 -34.84375 L 33.0625 -34.84375 L 33.0625 -31.582031 L 29.796875 -31.582031 L 29.796875 -42.371094 L 33.0625 -42.371094 L 33.0625 -39.109375 L 17.53125 -39.109375 L 17.53125 -63.121094 L 36.890625 -63.121094 L 36.890625 -59.859375 L 33.625 -59.859375 L 33.625 -70.472656 L 36.890625 -70.472656 L 36.890625 -67.210938 Z M 5.21875 -67.210938 "/></g></g></g><g clip-path="url(#90ce985a35)"><g fill="#004aad" fill-opacity="1"><g transform="translate(138.032503, 104.380176)"><g><path d="M 5.21875 -73.734375 L 24.621094 -73.734375 C 33.015625 -73.734375 39.460938 -72.179688 43.964844 -69.066406 C 48.847656 -65.691406 51.289062 -59.953125 51.289062 -51.855469 C 51.289062 -46.699219 50.589844 -42.523438 49.1875 -39.324219 C 47.644531 -35.792969 44.851562 -33.070312 40.808594 -31.15625 L 39.414062 -34.105469 L 42.550781 -34.992188 L 53.382812 3.261719 L 30.414062 3.261719 L 22.0625 -30.804688 L 25.230469 -31.582031 L 25.230469 -28.320312 L 20.792969 -28.320312 L 20.792969 -31.582031 L 24.054688 -31.582031 L 24.054688 3.261719 L 1.957031 3.261719 L 1.957031 -73.734375 Z M 5.21875 -67.210938 L 5.21875 -70.472656 L 8.484375 -70.472656 L 8.484375 0 L 5.21875 0 L 5.21875 -3.261719 L 20.792969 -3.261719 L 20.792969 0 L 17.53125 0 L 17.53125 -34.84375 L 27.789062 -34.84375 L 36.144531 -0.777344 L 32.972656 0 L 32.972656 -3.261719 L 49.070312 -3.261719 L 49.070312 0 L 45.929688 0.890625 L 35.519531 -35.871094 L 38.015625 -37.054688 C 40.585938 -38.273438 42.316406 -39.898438 43.210938 -41.9375 C 44.246094 -44.304688 44.761719 -47.609375 44.761719 -51.855469 C 44.761719 -57.671875 43.261719 -61.621094 40.253906 -63.699219 C 36.867188 -66.039062 31.65625 -67.210938 24.621094 -67.210938 Z M 25.144531 -43.804688 C 27.191406 -43.804688 28.511719 -44.199219 29.109375 -44.988281 C 29.917969 -46.058594 30.320312 -47.882812 30.320312 -50.460938 C 30.320312 -52.945312 29.949219 -54.699219 29.203125 -55.71875 C 28.695312 -56.417969 27.574219 -56.769531 25.839844 -56.769531 L 20.792969 -56.769531 L 20.792969 -60.03125 L 24.054688 -60.03125 L 24.054688 -40.542969 L 20.792969 -40.542969 L 20.792969 -43.804688 Z M 25.144531 -37.28125 L 17.53125 -37.28125 L 17.53125 -63.292969 L 25.839844 -63.292969 C 29.789062 -63.292969 32.671875 -62.050781 34.480469 -59.558594 C 36.058594 -57.390625 36.847656 -54.359375 36.847656 -50.460938 C 36.847656 -46.425781 36.003906 -43.292969 34.316406 -41.058594 C 32.417969 -38.539062 29.359375 -37.28125 25.144531 -37.28125 Z M 25.144531 -37.28125 "/></g></g></g></g><g fill="#ffffff" fill-opacity="1"><g transform="translate(0.852828, 104.380176)"><g><path d="M 25.40625 1.046875 C 17.75 1.046875 12.3125 -0.96875 9.09375 -5 C 5.875 -9.03125 4.265625 -14.847656 4.265625 -22.453125 L 4.265625 -47.84375 C 4.265625 -55.625 5.859375 -61.5 9.046875 -65.46875 C 12.234375 -69.4375 17.6875 -71.421875 25.40625 -71.421875 C 32.769531 -71.421875 37.988281 -69.648438 41.0625 -66.109375 C 44.132812 -62.578125 45.671875 -57.5625 45.671875 -51.0625 L 45.671875 -44.984375 L 30.453125 -44.984375 L 30.453125 -52.03125 C 30.453125 -54.75 30.160156 -56.832031 29.578125 -58.28125 C 28.992188 -59.738281 27.601562 -60.46875 25.40625 -60.46875 C 23.195312 -60.46875 21.742188 -59.695312 21.046875 -58.15625 C 20.359375 -56.625 20.015625 -54.492188 20.015625 -51.765625 L 20.015625 -18.625 C 20.015625 -15.832031 20.375 -13.695312 21.09375 -12.21875 C 21.820312 -10.738281 23.257812 -10 25.40625 -10 C 27.550781 -10 28.925781 -10.738281 29.53125 -12.21875 C 30.144531 -13.695312 30.453125 -15.832031 30.453125 -18.625 L 30.453125 -26.015625 L 45.671875 -26.015625 L 45.671875 -19.921875 C 45.671875 -13.304688 44.132812 -8.15625 41.0625 -4.46875 C 37.988281 -0.789062 32.769531 1.046875 25.40625 1.046875 Z M 25.40625 1.046875 "/></g></g></g><g fill="#ffffff" fill-opacity="1"><g transform="translate(49.826926, 104.380176)"><g><path d="M 5.21875 -70.46875 L 20.796875 -70.46875 L 20.796875 -41.671875 L 32.625 -70.46875 L 47.84375 -70.46875 L 34.796875 -38.625 L 48.453125 0 L 32.625 0 L 22.453125 -31.140625 L 20.796875 -28.359375 L 20.796875 0 L 5.21875 0 Z M 5.21875 -70.46875 "/></g></g></g><g fill="#ffffff" fill-opacity="1"><g transform="translate(99.148981, 104.380176)"><g><path d="M 5.21875 -70.46875 L 36.890625 -70.46875 L 36.890625 -59.859375 L 20.796875 -59.859375 L 20.796875 -42.375 L 33.0625 -42.375 L 33.0625 -31.578125 L 20.796875 -31.578125 L 20.796875 -10.53125 L 37.0625 -10.53125 L 37.0625 0 L 5.21875 0 Z M 5.21875 -70.46875 "/></g></g></g><g fill="#ffffff" fill-opacity="1"><g transform="translate(138.032503, 104.380176)"><g><path d="M 5.21875 -70.46875 L 24.625 -70.46875 C 32.332031 -70.46875 38.160156 -69.101562 42.109375 -66.375 C 46.054688 -63.65625 48.03125 -58.816406 48.03125 -51.859375 C 48.03125 -47.160156 47.421875 -43.414062 46.203125 -40.625 C 44.984375 -37.84375 42.71875 -35.671875 39.40625 -34.109375 L 49.0625 0 L 32.96875 0 L 25.234375 -31.578125 L 20.796875 -31.578125 L 20.796875 0 L 5.21875 0 Z M 25.140625 -40.546875 C 28.273438 -40.546875 30.460938 -41.367188 31.703125 -43.015625 C 32.953125 -44.671875 33.578125 -47.148438 33.578125 -50.453125 C 33.578125 -53.648438 33 -56.046875 31.84375 -57.640625 C 30.6875 -59.234375 28.6875 -60.03125 25.84375 -60.03125 L 20.796875 -60.03125 L 20.796875 -40.546875 Z M 25.140625 -40.546875 "/></g></g></g></g></g><g clip-path="url(#ec79c5d3c1)"><g clip-path="url(#fbee2661c3)"><g clip-path="url(#da37b65e8a)"><path fill="#004aad" d="M 135.5625 224.082031 C 136.441406 228.199219 135.230469 232.59375 132.117188 236.949219 C 132.375 242.769531 128.257812 249.074219 120.507812 254.722656 C 114.785156 258.894531 107.453125 262.429688 99.296875 265.007812 L 100.722656 271.703125 C 101.300781 274.417969 96.929688 276.625 92.339844 277.601562 C 89.984375 278.105469 87.71875 278.25 85.953125 278.015625 C 83.257812 277.664062 82.46875 276.523438 82.277344 275.632812 L 80.851562 268.941406 C 72.351562 269.910156 64.214844 269.671875 57.289062 268.195312 C 47.910156 266.195312 41.582031 262.117188 39.441406 256.699219 C 34.820312 253.988281 31.925781 250.472656 31.050781 246.355469 C 28.382812 233.839844 45.570312 219.082031 71.082031 211.933594 L 59.277344 156.550781 C 33.070312 160.421875 11.359375 153.957031 8.691406 141.441406 C 7.816406 137.324219 9.023438 132.929688 12.136719 128.574219 C 11.882812 122.753906 15.996094 116.449219 23.746094 110.800781 C 29.472656 106.628906 36.804688 103.09375 44.957031 100.515625 L 43.53125 93.820312 C 42.953125 91.105469 47.328125 88.898438 51.917969 87.921875 C 56.507812 86.945312 61.398438 87.175781 61.976562 89.890625 L 63.402344 96.585938 C 71.902344 95.613281 80.039062 95.855469 86.96875 97.328125 C 96.347656 99.328125 102.675781 103.40625 104.8125 108.824219 C 109.433594 111.53125 112.328125 115.050781 113.207031 119.171875 C 115.871094 131.683594 98.683594 146.441406 73.171875 153.589844 L 84.976562 208.972656 C 111.183594 205.097656 132.894531 211.566406 135.5625 224.082031 Z M 135.5625 224.082031 " fill-opacity="1" fill-rule="nonzero"/></g></g></g><g clip-path="url(#99d717524c)"><g clip-path="url(#0f00706a34)"><g clip-path="url(#ab5dd3b21a)"><path fill="#191919" d="M 92.25 277.183594 C 89.945312 277.675781 87.726562 277.820312 86.007812 277.597656 C 84.070312 277.34375 82.925781 276.632812 82.695312 275.542969 L 81.1875 268.472656 L 80.804688 268.515625 C 72.300781 269.484375 64.199219 269.230469 57.375 267.773438 C 48.152344 265.808594 41.921875 261.820312 39.839844 256.542969 L 39.785156 256.40625 L 39.660156 256.332031 C 35.074219 253.644531 32.320312 250.253906 31.472656 246.265625 C 28.859375 234.003906 45.9375 219.417969 71.199219 212.34375 L 71.585938 212.234375 L 59.617188 156.066406 L 59.21875 156.125 C 33.265625 159.964844 11.726562 153.609375 9.113281 141.351562 C 8.273438 137.414062 9.441406 133.078125 12.484375 128.824219 L 12.570312 128.703125 L 12.566406 128.558594 C 12.316406 122.886719 16.378906 116.703125 24 111.144531 C 29.640625 107.039062 36.933594 103.5 45.089844 100.921875 L 45.457031 100.804688 L 43.949219 93.734375 C 43.433594 91.316406 47.761719 89.242188 52.003906 88.339844 C 56.25 87.433594 61.046875 87.5625 61.5625 89.980469 L 63.066406 97.050781 L 63.453125 97.011719 C 71.949219 96.039062 80.050781 96.296875 86.878906 97.746094 C 96.101562 99.714844 102.332031 103.707031 104.417969 108.984375 L 104.472656 109.121094 L 104.597656 109.191406 C 109.117188 111.835938 111.945312 115.320312 112.785156 119.257812 C 115.394531 131.515625 98.316406 146.101562 73.054688 153.179688 L 72.667969 153.285156 L 84.636719 209.453125 L 85.035156 209.394531 C 110.988281 205.558594 132.527344 211.910156 135.140625 224.171875 C 135.992188 228.164062 134.855469 232.378906 131.765625 236.703125 L 131.679688 236.820312 L 131.6875 236.96875 C 131.9375 242.640625 127.871094 248.820312 120.25 254.375 C 114.613281 258.488281 107.320312 262.023438 99.160156 264.601562 L 98.792969 264.71875 L 100.300781 271.792969 C 100.820312 274.207031 96.492188 276.28125 92.25 277.183594 Z M 92.25 277.183594 " fill-opacity="1" fill-rule="nonzero"/></g></g></g><g clip-path="url(#9a2ba59c80)"><g clip-path="url(#ac6e22634c)"><g clip-path="url(#bbb27f5f2c)"><path fill="#004aad" d="M 84.976562 208.972656 L 79.074219 181.28125 L 73.175781 153.59375 C 98.683594 146.445312 115.871094 131.683594 113.207031 119.171875 C 112.328125 115.050781 109.433594 111.53125 104.8125 108.824219 C 102.675781 103.40625 96.351562 99.328125 86.96875 97.328125 C 80.042969 95.851562 71.902344 95.613281 63.402344 96.578125 L 61.976562 89.890625 C 61.398438 87.175781 56.503906 86.945312 51.917969 87.921875 C 47.324219 88.902344 42.953125 91.105469 43.53125 93.820312 L 44.957031 100.515625 C 36.804688 103.09375 29.472656 106.628906 23.746094 110.804688 C 15.996094 116.449219 11.882812 122.753906 12.136719 128.574219 C 9.023438 132.929688 7.816406 137.324219 8.691406 141.441406 C 11.359375 153.957031 33.070312 160.421875 59.28125 156.554688 L 65.179688 184.242188 L 71.082031 211.933594 C 45.570312 219.082031 28.382812 233.839844 31.050781 246.355469 C 31.925781 250.472656 34.820312 253.988281 39.441406 256.699219 C 41.582031 262.117188 47.90625 266.199219 57.289062 268.199219 C 64.210938 269.671875 72.351562 269.910156 80.851562 268.945312 L 82.277344 275.636719 C 82.46875 276.53125 83.257812 277.667969 85.953125 278.023438 C 87.71875 278.253906 89.984375 278.109375 92.339844 277.605469 C 96.925781 276.628906 101.300781 274.425781 100.722656 271.707031 L 99.296875 265.015625 C 107.453125 262.433594 114.785156 258.898438 120.507812 254.726562 C 128.261719 249.074219 132.375 242.773438 132.117188 236.949219 C 135.234375 232.597656 136.441406 228.199219 135.5625 224.082031 C 132.894531 211.566406 111.183594 205.097656 84.976562 208.972656 Z M 127.128906 218.71875 C 128.3125 224.261719 124.695312 232.191406 110.386719 238.652344 C 96.148438 245.082031 51.699219 258.335938 40.921875 239.746094 C 42.789062 242.675781 47.589844 244.699219 54.800781 245.523438 C 54.804688 245.523438 54.804688 245.523438 54.808594 245.527344 C 61.21875 246.347656 69.695312 245.996094 78.683594 244.539062 C 79.027344 244.480469 79.382812 244.425781 79.722656 244.363281 C 79.96875 244.324219 80.210938 244.28125 80.457031 244.238281 C 80.496094 244.234375 80.53125 244.226562 80.554688 244.222656 C 80.984375 244.148438 81.410156 244.070312 81.828125 243.988281 C 82.070312 243.949219 82.304688 243.902344 82.542969 243.855469 C 82.707031 243.824219 82.875 243.792969 83.039062 243.757812 C 83.039062 243.757812 83.042969 243.757812 83.042969 243.757812 C 83.707031 243.628906 84.371094 243.492188 85.042969 243.347656 C 85.714844 243.207031 86.375 243.058594 87.027344 242.910156 C 87.199219 242.871094 87.367188 242.832031 87.535156 242.792969 C 87.765625 242.738281 88.003906 242.683594 88.230469 242.625 C 88.652344 242.527344 89.078125 242.421875 89.480469 242.320312 C 89.515625 242.3125 89.554688 242.304688 89.59375 242.292969 C 89.835938 242.230469 90.074219 242.171875 90.3125 242.109375 C 90.652344 242.023438 90.996094 241.929688 91.339844 241.839844 C 91.347656 241.839844 91.355469 241.835938 91.363281 241.835938 C 100.160156 239.5 108.039062 236.367188 113.550781 233.003906 L 113.585938 232.984375 C 113.585938 232.984375 113.585938 232.984375 113.589844 232.984375 L 113.59375 232.980469 C 113.59375 232.980469 113.59375 232.980469 113.597656 232.980469 C 121.019531 228.589844 124.652344 224.015625 123.820312 220.105469 C 122.472656 213.789062 109.625 210.886719 92.300781 212.59375 L 92.316406 212.589844 C 92.316406 212.589844 92.296875 212.59375 92.257812 212.597656 C 92.132812 212.613281 92.007812 212.621094 91.882812 212.636719 C 90.679688 212.71875 87.363281 212.660156 86.636719 209.597656 C 98.71875 207.984375 109.75 208.585938 118.210938 210.964844 C 118.9375 211.191406 126.011719 213.46875 127.128906 218.71875 Z M 102.691406 138.226562 C 95.9375 143.851562 86.113281 148.890625 74.421875 152.347656 C 73.835938 149.246094 76.855469 147.84375 77.976562 147.433594 C 78.09375 147.394531 78.207031 147.359375 78.324219 147.316406 C 78.363281 147.300781 78.390625 147.296875 78.390625 147.296875 L 78.371094 147.300781 C 94.894531 141.796875 105.4375 133.910156 104.089844 127.589844 C 103.257812 123.683594 98.078125 120.988281 89.46875 120 C 89.46875 120 89.464844 120 89.464844 120 C 83.050781 119.179688 74.566406 119.527344 65.574219 120.980469 C 65.230469 121.039062 64.875 121.09375 64.535156 121.15625 C 64.289062 121.195312 64.046875 121.238281 63.800781 121.28125 C 63.761719 121.285156 63.722656 121.289062 63.703125 121.296875 C 63.273438 121.371094 62.847656 121.449219 62.429688 121.53125 C 62.203125 121.570312 61.976562 121.613281 61.75 121.65625 L 61.832031 122.074219 L 61.703125 121.667969 C 61.546875 121.695312 61.363281 121.726562 61.222656 121.761719 C 61.222656 121.761719 61.21875 121.761719 61.21875 121.761719 C 59.894531 122.019531 58.535156 122.308594 57.234375 122.609375 C 57.070312 122.644531 56.902344 122.6875 56.742188 122.722656 L 56.699219 122.734375 C 56.476562 122.785156 56.25 122.835938 56.03125 122.894531 C 55.609375 122.992188 55.1875 123.09375 54.78125 123.199219 C 54.746094 123.207031 54.707031 123.214844 54.667969 123.226562 C 54.425781 123.289062 54.191406 123.347656 53.949219 123.410156 C 53.613281 123.496094 53.265625 123.585938 52.925781 123.675781 C 44.125 126.015625 36.230469 129.152344 30.722656 132.511719 L 30.683594 132.535156 C 24.46875 136.210938 20.910156 140.011719 20.398438 143.449219 C 22.667969 122.082031 68.652344 116.0625 84.277344 116.128906 C 99.976562 116.195312 106.511719 121.960938 107.691406 127.507812 C 108.8125 132.753906 103.28125 137.714844 102.691406 138.226562 Z M 89.4375 241.894531 L 89.28125 241.492188 C 88.871094 241.597656 88.445312 241.699219 88.023438 241.796875 C 87.796875 241.855469 87.5625 241.910156 87.328125 241.964844 C 87.167969 242.003906 87.007812 242.042969 86.835938 242.078125 C 85.53125 242.382812 84.199219 242.664062 82.871094 242.921875 C 82.707031 242.957031 82.542969 242.988281 82.375 243.019531 C 82.144531 243.0625 81.910156 243.109375 81.671875 243.152344 C 81.253906 243.230469 80.828125 243.308594 80.375 243.390625 L 80.320312 243.394531 C 80.074219 243.441406 79.832031 243.484375 79.574219 243.523438 C 79.230469 243.585938 78.882812 243.640625 78.542969 243.695312 C 69.765625 245.101562 61.589844 245.4375 54.855469 244.671875 C 48.535156 243.851562 44.746094 241.953125 44.1875 239.328125 C 43.039062 233.941406 55.449219 226.3125 73.117188 221.507812 L 73.382812 222.75 C 70.21875 224.1875 68.578125 225.789062 68.871094 227.167969 L 69.925781 232.105469 C 70.476562 234.699219 77.039062 234.757812 82.9375 233.503906 C 88.832031 232.246094 94.800781 229.515625 94.246094 226.921875 L 93.195312 221.984375 C 92.898438 220.601562 90.75 219.808594 87.277344 219.789062 L 87.011719 218.550781 C 105.101562 215.734375 119.546875 217.640625 120.695312 223.027344 C 121.253906 225.65625 118.566406 228.933594 113.140625 232.253906 L 113.101562 232.277344 C 107.296875 235.699219 99.691406 238.726562 91.109375 241.023438 C 90.769531 241.113281 90.433594 241.203125 90.089844 241.289062 C 89.847656 241.351562 89.605469 241.414062 89.320312 241.488281 Z M 22.722656 142.671875 C 22.527344 141.757812 22.644531 140.804688 23.050781 139.816406 C 23.050781 139.816406 23.054688 139.8125 23.054688 139.8125 C 22.644531 140.800781 22.527344 141.757812 22.722656 142.671875 C 23.664062 147.09375 31.984375 149.410156 43.960938 149.085938 C 31.988281 149.410156 23.664062 147.09375 22.722656 142.671875 Z M 21.214844 144.730469 C 21.105469 143.5625 21.464844 142.304688 22.242188 141 C 21.464844 142.304688 21.105469 143.5625 21.214844 144.730469 Z M 84.753906 140.265625 C 93.613281 136.507812 99.511719 132.167969 100.75 128.324219 C 99.511719 132.164062 93.609375 136.503906 84.753906 140.265625 Z M 96.390625 137.824219 C 94.230469 139.34375 91.617188 140.835938 88.636719 142.269531 C 91.613281 140.835938 94.230469 139.34375 96.390625 137.824219 Z M 99.421875 123.53125 C 99.835938 123.925781 100.171875 124.347656 100.425781 124.789062 C 100.175781 124.347656 99.835938 123.925781 99.421875 123.53125 Z M 100.0625 126.191406 C 101.210938 131.582031 88.800781 139.210938 71.132812 144.011719 L 70.867188 142.773438 C 74.03125 141.335938 75.671875 139.738281 75.378906 138.359375 L 74.324219 133.417969 C 73.773438 130.828125 67.210938 130.765625 61.316406 132.023438 C 55.417969 133.28125 49.453125 136.011719 50.003906 138.601562 L 51.054688 143.542969 C 51.351562 144.925781 53.503906 145.71875 56.972656 145.734375 L 57.238281 146.972656 C 39.148438 149.789062 24.703125 147.882812 23.554688 142.496094 C 22.996094 139.871094 25.675781 136.597656 31.09375 133.277344 C 31.109375 133.265625 31.128906 133.257812 31.144531 133.246094 C 36.949219 129.820312 44.550781 126.792969 53.136719 124.5 C 53.476562 124.410156 53.8125 124.320312 54.15625 124.234375 C 54.398438 124.167969 54.640625 124.109375 54.882812 124.046875 L 54.964844 124.027344 C 55.378906 123.921875 55.800781 123.816406 56.226562 123.71875 C 56.445312 123.664062 56.664062 123.613281 56.882812 123.5625 L 56.933594 123.550781 C 57.085938 123.511719 57.25 123.472656 57.417969 123.4375 C 58.722656 123.132812 60.046875 122.851562 61.382812 122.59375 C 61.542969 122.558594 61.703125 122.53125 61.859375 122.5 L 61.910156 122.488281 C 62.132812 122.445312 62.355469 122.402344 62.582031 122.363281 C 63 122.285156 63.425781 122.207031 63.875 122.128906 L 63.929688 122.121094 C 64.179688 122.074219 64.421875 122.03125 64.679688 121.992188 C 65.023438 121.929688 65.371094 121.875 65.714844 121.820312 C 65.738281 121.8125 65.769531 121.8125 65.792969 121.804688 C 74.539062 120.414062 82.683594 120.078125 89.398438 120.839844 C 95.714844 121.664062 99.503906 123.5625 100.0625 126.191406 Z M 51.5625 141.828125 C 51.5625 141.828125 53.410156 137.882812 58.566406 136.082031 C 58.566406 136.082031 55.347656 136.273438 52.691406 137.519531 C 52.691406 137.519531 53.921875 135.1875 57.714844 133.863281 C 58.839844 133.496094 60.078125 133.15625 61.417969 132.871094 C 66.605469 131.964844 70.632812 133.507812 70.632812 133.507812 C 68.691406 133.277344 64.839844 134.25 64.839844 134.25 C 69.476562 134.289062 70.972656 135.105469 70.972656 135.105469 L 71.214844 136.242188 C 71.21875 136.246094 71.222656 136.246094 71.230469 136.25 C 68.734375 136.003906 65.460938 136.300781 62.367188 136.960938 C 57.765625 137.9375 53.117188 139.816406 51.5625 141.828125 Z M 56.542969 143.710938 L 56.792969 144.878906 C 53.417969 144.832031 52.035156 144.046875 51.890625 143.359375 C 51.570312 141.867188 55.867188 139.214844 62.542969 137.789062 C 69.21875 136.367188 74.226562 137.039062 74.542969 138.53125 C 74.691406 139.21875 73.746094 140.5 70.6875 141.917969 L 70.4375 140.75 C 70.101562 139.167969 66.429688 139.089844 62.976562 139.824219 C 59.527344 140.558594 56.207031 142.128906 56.542969 143.710938 Z M 66.015625 184.066406 L 57.375 143.53125 C 57.242188 142.90625 59.480469 141.441406 63.15625 140.65625 C 66.832031 139.875 69.46875 140.300781 69.605469 140.925781 L 78.242188 181.460938 L 86.878906 221.992188 C 87.011719 222.617188 84.777344 224.082031 81.101562 224.867188 C 77.425781 225.648438 74.785156 225.222656 74.652344 224.597656 Z M 81.277344 225.699219 C 84.726562 224.964844 88.050781 223.394531 87.710938 221.816406 L 87.464844 220.644531 C 90.835938 220.691406 92.21875 221.476562 92.367188 222.164062 C 92.683594 223.65625 88.386719 226.3125 81.710938 227.734375 C 75.035156 229.15625 70.03125 228.484375 69.710938 226.992188 C 69.566406 226.304688 70.507812 225.023438 73.570312 223.605469 L 73.816406 224.777344 C 74.15625 226.355469 77.828125 226.433594 81.277344 225.699219 Z M 120.832031 221.277344 C 118.558594 218.054688 111.519531 216.332031 101.851562 216.40625 C 111.519531 216.332031 118.558594 218.054688 120.832031 221.277344 Z M 78.90625 233.289062 C 74.894531 233.625 72.824219 231.992188 72.824219 231.992188 C 75.757812 232.050781 78.777344 230.914062 78.777344 230.914062 C 73.332031 231.367188 70.035156 228.519531 70.035156 228.519531 C 72.277344 229.722656 77.285156 229.542969 81.886719 228.5625 C 84.980469 227.902344 88.089844 226.835938 90.269531 225.601562 C 90.265625 225.605469 90.261719 225.605469 90.261719 225.613281 L 90.503906 226.75 C 90.503906 226.75 89.472656 228.105469 85.25 230.03125 C 85.25 230.03125 89.160156 229.347656 90.84375 228.34375 C 90.84375 228.34375 87.796875 231.402344 82.683594 232.683594 C 81.351562 232.96875 80.082031 233.164062 78.90625 233.289062 Z M 59.144531 225.410156 C 48.671875 229.914062 42.445312 235.222656 43.359375 239.511719 C 43.40625 239.738281 43.476562 239.964844 43.5625 240.179688 C 43.476562 239.964844 43.40625 239.738281 43.359375 239.511719 C 42.445312 235.222656 48.675781 229.910156 59.144531 225.410156 Z M 44.664062 241.894531 C 42.875 240.902344 41.675781 239.714844 41.175781 238.363281 C 41.675781 239.710938 42.875 240.902344 44.664062 241.894531 Z M 44.828125 241.988281 C 44.449219 241.628906 44.140625 241.25 43.898438 240.851562 C 44.140625 241.25 44.457031 241.632812 44.832031 241.992188 C 44.832031 241.992188 44.828125 241.988281 44.828125 241.988281 Z M 43.605469 240.273438 C 43.636719 240.347656 43.667969 240.429688 43.707031 240.503906 C 43.667969 240.429688 43.636719 240.347656 43.605469 240.273438 Z M 43.753906 240.59375 C 43.792969 240.667969 43.835938 240.742188 43.875 240.816406 C 43.835938 240.746094 43.792969 240.671875 43.753906 240.59375 Z M 121.546875 224.539062 C 121.476562 224.925781 121.363281 225.324219 121.199219 225.71875 C 121.367188 225.316406 121.480469 224.921875 121.546875 224.539062 Z M 41.902344 152.539062 C 38.0625 152.503906 34.597656 152.191406 31.652344 151.621094 C 34.597656 152.191406 38.0625 152.503906 41.902344 152.539062 Z M 111.449219 127.320312 C 111.832031 118.882812 109.691406 114.230469 107.445312 111.683594 C 110.035156 113.847656 111.75 116.417969 112.375 119.34375 C 112.921875 121.929688 112.578125 124.625 111.449219 127.320312 Z M 103.5625 108.132812 C 102.5 107.578125 101.355469 107.066406 100.136719 106.589844 L 100.152344 106.589844 C 100.152344 106.589844 98.601562 102.742188 94.929688 100.769531 C 99 102.632812 102.003906 105.109375 103.5625 108.132812 Z M 57.226562 88.273438 C 57.4375 88.3125 58.375 88.597656 58.761719 90.421875 C 59.203125 92.492188 59.644531 94.554688 59.644531 94.554688 C 55.496094 94.675781 51.40625 95.546875 47.570312 97.125 C 47.570312 97.125 47.128906 95.058594 46.691406 92.996094 C 46.3125 91.234375 46.984375 90.578125 47.191406 90.421875 C 48.585938 89.714844 50.34375 89.128906 52.09375 88.757812 C 53.945312 88.363281 55.722656 88.195312 57.226562 88.273438 Z M 54.265625 98.9375 C 65.523438 96.539062 76.351562 96.292969 85.074219 97.84375 C 84.992188 97.839844 82.992188 97.769531 80.890625 98.382812 C 80.890625 98.382812 84.625 98.554688 87.605469 100.816406 C 87.605469 100.816406 85.207031 100.761719 82.902344 101.421875 C 82.902344 101.421875 86.628906 102.039062 89.53125 103.835938 C 79.523438 102.25 67.679688 102.753906 55.625 105.320312 C 51.003906 106.304688 46.542969 107.5625 42.308594 109.039062 C 43.929688 107.402344 46.894531 105.515625 46.894531 105.515625 C 43.972656 105.800781 41.222656 106.898438 41.222656 106.898438 C 41.796875 105.582031 45.308594 102.871094 45.308594 102.871094 C 19.136719 111.261719 14.886719 125.269531 14.886719 125.269531 C 14.886719 125.269531 14.894531 125.261719 14.902344 125.257812 C 14.214844 125.984375 13.578125 126.710938 13 127.445312 C 13.628906 116.152344 31.296875 103.832031 54.265625 98.9375 Z M 9.527344 141.265625 C 6.6875 127.945312 27.445312 112.195312 55.800781 106.152344 C 75.207031 102.015625 93.214844 103.484375 103.5625 109.089844 C 107.0625 111.285156 108.511719 117.515625 107.363281 118.871094 C 106.140625 120.324219 104.425781 119.078125 104.425781 119.078125 C 94.523438 113.429688 84.640625 112.636719 84.640625 112.636719 C 68.167969 110.949219 44.777344 118.515625 44.777344 118.515625 C 45.84375 117.378906 49.78125 115.0625 49.78125 115.0625 C 47.898438 115.292969 44.183594 116.179688 44.183594 116.179688 C 46.351562 114.355469 49.03125 112.609375 49.03125 112.609375 C 46.09375 112.953125 43.496094 113.5625 43.496094 113.5625 C 44.699219 112.28125 47.882812 110.144531 47.882812 110.144531 C 26.367188 116.167969 17.925781 126.113281 17.925781 126.113281 C 19.777344 124.921875 22.296875 124.214844 22.296875 124.214844 C 3.667969 138.414062 17.417969 148.183594 17.417969 148.183594 C 15.425781 144.308594 16.890625 141.113281 16.890625 141.113281 C 19.238281 157.519531 40.75 154.460938 40.75 154.460938 C 36.15625 154.117188 30.066406 152.136719 30.066406 152.136719 C 30.066406 152.136719 30.054688 152.128906 30.019531 152.125 C 35.792969 153.515625 43.785156 153.804688 52.976562 152.8125 L 52.972656 152.8125 C 52.972656 152.8125 52.976562 152.8125 52.984375 152.8125 C 53.167969 152.789062 53.355469 152.765625 53.539062 152.75 C 54.621094 152.691406 56.953125 152.9375 57.636719 155.910156 C 32.566406 159.265625 12.046875 153.089844 9.527344 141.265625 Z M 31.882812 246.175781 C 29.363281 234.34375 45.582031 220.34375 69.835938 213.183594 C 70.421875 216.171875 68.398438 217.347656 67.382812 217.738281 C 67.203125 217.792969 67.023438 217.851562 66.84375 217.910156 C 66.839844 217.910156 66.835938 217.910156 66.835938 217.910156 L 66.839844 217.910156 C 58.042969 220.753906 50.863281 224.273438 46.160156 227.898438 C 46.1875 227.875 46.199219 227.871094 46.199219 227.871094 C 46.199219 227.871094 50.949219 223.574219 55.003906 221.390625 C 55.003906 221.390625 34.113281 227.371094 38.660156 243.304688 C 38.660156 243.304688 36.019531 240.988281 36.257812 236.636719 C 36.257812 236.636719 27.691406 251.160156 50.484375 256.535156 C 50.484375 256.535156 47.894531 256.914062 45.71875 256.582031 C 45.71875 256.582031 57.480469 262.222656 79.585938 258.949219 C 79.585938 258.949219 75.808594 258.296875 74.1875 257.617188 C 74.1875 257.617188 76.804688 257.117188 79.628906 256.230469 C 79.628906 256.230469 76.472656 255.726562 73.746094 254.945312 C 73.746094 254.945312 77.496094 254.242188 79.3125 253.683594 C 79.3125 253.683594 74.773438 253.175781 73.335938 252.570312 C 73.335938 252.570312 97.78125 249.945312 112.132812 241.6875 C 112.132812 241.6875 120.835938 236.9375 127.570312 227.742188 C 127.570312 227.742188 128.632812 225.90625 130.339844 226.730469 C 131.941406 227.5 133.15625 233.773438 130.859375 237.210938 C 123.699219 246.546875 107.851562 255.234375 88.445312 259.371094 C 60.097656 265.417969 34.722656 259.496094 31.882812 246.175781 Z M 87.003906 277.246094 C 86.753906 277.1875 85.871094 276.863281 85.496094 275.097656 C 85.054688 273.027344 84.617188 270.964844 84.617188 270.964844 C 88.761719 270.84375 92.851562 269.972656 96.6875 268.394531 C 96.6875 268.394531 97.128906 270.460938 97.570312 272.523438 C 97.945312 274.285156 97.269531 274.945312 97.066406 275.101562 C 95.671875 275.808594 93.914062 276.390625 92.164062 276.761719 C 90.410156 277.140625 88.566406 277.320312 87.003906 277.246094 Z M 89.992188 266.585938 C 67.023438 271.480469 45.867188 267.433594 40.691406 257.386719 C 41.519531 257.816406 42.398438 258.222656 43.320312 258.609375 C 43.3125 258.605469 43.300781 258.605469 43.300781 258.605469 C 43.300781 258.605469 52.894531 269.660156 80.210938 266.65625 C 80.210938 266.65625 75.898438 265.613281 74.839844 264.644531 C 74.839844 264.644531 77.796875 264.523438 80.582031 263.589844 C 80.582031 263.589844 77.105469 263.078125 74.957031 262.246094 C 79.425781 261.867188 84.015625 261.195312 88.632812 260.210938 C 100.6875 257.640625 111.710938 253.269531 120.199219 247.746094 C 118.28125 250.570312 115.132812 252.652344 115.132812 252.652344 C 117.503906 252.316406 119.671875 251.289062 119.671875 251.289062 C 117.871094 254.570312 114.535156 256.246094 114.535156 256.246094 C 116.707031 255.949219 118.511719 255.0625 118.570312 255.035156 C 111.242188 260 101.253906 264.1875 89.992188 266.585938 Z M 126.375 248.328125 C 128.929688 245.03125 128.769531 240.882812 128.769531 240.882812 L 128.757812 240.890625 C 129.679688 239.957031 130.511719 239.027344 131.257812 238.082031 C 131.066406 241.488281 129.332031 244.976562 126.375 248.328125 Z M 133.351562 233.257812 C 134.367188 230.019531 134.425781 224.898438 130.632812 217.351562 C 132.765625 219.359375 134.175781 221.671875 134.730469 224.261719 C 135.351562 227.1875 134.835938 230.226562 133.351562 233.257812 Z M 68.511719 144.820312 C 68.394531 144.269531 67.167969 144.035156 65.535156 144.183594 L 73.6875 182.429688 L 76.402344 181.851562 Z M 63.957031 144.425781 C 61.59375 144.929688 59.808594 145.925781 59.960938 146.640625 L 67.851562 183.671875 L 72.128906 182.761719 Z M 87.132812 110.746094 C 87.132812 110.746094 95.527344 112.539062 100.1875 115.207031 C 104.847656 117.878906 106.105469 114.972656 102.792969 111.839844 C 99.484375 108.710938 92.84375 105.945312 81.902344 105.804688 C 81.902344 105.804688 87.378906 107.105469 92.242188 109.910156 C 92.242188 109.914062 90.164062 109.757812 87.132812 110.746094 Z M 89.363281 121.703125 L 89.292969 121.695312 C 82.664062 120.941406 74.585938 121.273438 65.9375 122.652344 C 65.910156 122.65625 65.878906 122.660156 65.847656 122.664062 C 65.511719 122.71875 65.164062 122.777344 64.8125 122.839844 C 64.5625 122.878906 64.324219 122.921875 64.046875 122.972656 L 64.015625 122.972656 C 63.578125 123.050781 63.152344 123.125 62.726562 123.210938 C 62.507812 123.246094 62.296875 123.289062 62.066406 123.332031 L 61.988281 123.347656 C 61.828125 123.378906 61.691406 123.402344 61.542969 123.433594 C 60.878906 123.5625 60.226562 123.699219 59.566406 123.839844 C 58.90625 123.980469 58.253906 124.121094 57.589844 124.277344 C 57.429688 124.3125 57.273438 124.347656 57.113281 124.386719 C 56.859375 124.445312 56.648438 124.496094 56.421875 124.554688 C 56.019531 124.648438 55.617188 124.746094 55.222656 124.84375 L 55.179688 124.859375 L 55.089844 124.878906 C 54.851562 124.9375 54.617188 125 54.363281 125.066406 C 54.023438 125.148438 53.695312 125.238281 53.355469 125.328125 C 44.839844 127.605469 37.3125 130.597656 31.574219 133.984375 L 31.539062 134.007812 C 26.519531 137.078125 23.910156 140.105469 24.382812 142.320312 C 25.246094 146.386719 36.792969 148.933594 54.816406 146.464844 C 51.46875 146.070312 50.445312 144.804688 50.214844 143.714844 L 49.160156 138.777344 C 48.351562 134.972656 56.300781 132.214844 61.128906 131.1875 C 65.953125 130.160156 74.339844 129.433594 75.148438 133.238281 L 76.203125 138.179688 C 76.433594 139.265625 76.015625 140.839844 73.121094 142.5625 C 90.585938 137.46875 100.089844 130.4375 99.222656 126.371094 C 98.761719 124.167969 95.164062 122.46875 89.363281 121.703125 Z M 84.296875 218.882812 L 76.402344 181.851562 L 73.6875 182.429688 L 81.835938 220.675781 C 83.386719 220.148438 84.414062 219.433594 84.296875 218.882812 Z M 80.296875 221.097656 L 72.128906 182.761719 L 67.851562 183.671875 L 75.742188 220.707031 C 75.894531 221.421875 77.933594 221.601562 80.296875 221.097656 Z M 129.046875 235.015625 C 130.796875 230.808594 128.460938 228.664062 125.292969 233.003906 C 122.128906 237.339844 115.195312 242.398438 115.195312 242.398438 C 118.359375 242.066406 120.195312 241.078125 120.195312 241.078125 C 116.902344 245.613281 112.429688 249.039062 112.429688 249.039062 C 122.363281 244.453125 127.300781 239.226562 129.046875 235.015625 Z M 90.980469 240.175781 C 99.441406 237.90625 106.949219 234.914062 112.699219 231.527344 L 112.761719 231.492188 C 117.746094 228.425781 120.335938 225.40625 119.867188 223.207031 C 119 219.136719 107.457031 216.59375 89.429688 219.0625 C 92.777344 219.453125 93.800781 220.722656 94.03125 221.808594 L 95.085938 226.75 C 95.894531 230.554688 87.945312 233.3125 83.117188 234.339844 C 78.292969 235.367188 69.90625 236.089844 69.097656 232.285156 L 68.042969 227.347656 C 67.8125 226.261719 68.230469 224.6875 71.125 222.960938 C 53.660156 228.054688 44.160156 235.085938 45.027344 239.15625 C 45.496094 241.367188 49.113281 243.070312 54.953125 243.828125 L 54.992188 243.832031 C 61.609375 244.585938 69.707031 244.25 78.410156 242.859375 C 78.757812 242.800781 79.09375 242.746094 79.4375 242.6875 C 79.695312 242.644531 79.933594 242.601562 80.179688 242.558594 L 80.265625 242.542969 L 80.3125 242.539062 C 80.714844 242.472656 81.121094 242.398438 81.523438 242.316406 C 81.757812 242.277344 81.96875 242.234375 82.222656 242.183594 C 82.382812 242.15625 82.542969 242.125 82.707031 242.089844 C 83.375 241.960938 84.03125 241.824219 84.6875 241.6875 C 85.347656 241.546875 86 241.402344 86.65625 241.25 C 86.804688 241.21875 86.941406 241.183594 87.101562 241.144531 L 87.179688 241.128906 C 87.40625 241.074219 87.617188 241.027344 87.832031 240.972656 C 88.253906 240.875 88.671875 240.773438 89.105469 240.660156 L 89.132812 240.652344 C 89.40625 240.585938 89.644531 240.523438 89.886719 240.460938 C 90.234375 240.375 90.570312 240.285156 90.902344 240.195312 C 90.929688 240.1875 90.957031 240.179688 90.980469 240.175781 Z M 90.980469 240.175781 " fill-opacity="1" fill-rule="nonzero"/></g></g></g><g clip-path="url(#b628f5c08e)"><g clip-path="url(#22583d93fc)"><g clip-path="url(#3f38115c90)"><path fill="#191919" d="M 16.785156 172.328125 L 37.5 167.914062 L 31.246094 187.371094 L 49.402344 183.5 L 24.921875 222.492188 L 29.671875 195.433594 L 15.640625 198.425781 Z M 117.355469 150.894531 L 96.644531 155.308594 L 110.285156 170.527344 L 92.128906 174.394531 L 130.378906 200.019531 L 115.011719 177.25 L 129.035156 174.257812 Z M 117.355469 150.894531 " fill-opacity="1" fill-rule="nonzero"/></g></g></g><g clip-path="url(#5f6a3888f5)"><g clip-path="url(#582c88446a)"><g clip-path="url(#b3b3f51608)"><path fill="#004aad" d="M 38.132812 167.34375 L 16.375 171.980469 L 15.195312 198.960938 L 29.140625 195.988281 L 24.125 224.558594 L 50.296875 182.875 L 31.878906 186.800781 Z M 16.488281 188.898438 L 16.097656 197.894531 Z M 30.195312 194.890625 L 16.097656 197.894531 C 16.117188 197.460938 24.738281 179.636719 24.738281 179.636719 L 18.105469 187.699219 L 23.972656 171.230469 L 36.871094 168.484375 L 26.257812 191.160156 L 41.757812 186.261719 L 25.714844 220.421875 Z M 48.503906 184.132812 L 30.613281 187.945312 L 36.867188 168.488281 L 30.613281 187.945312 Z M 129.667969 174.566406 L 117.589844 150.414062 L 95.835938 155.050781 L 109.476562 170.265625 L 91.058594 174.191406 L 131.949219 201.585938 L 115.722656 177.535156 Z M 128.410156 173.960938 L 117.121094 151.386719 Z M 97.453125 155.574219 L 108.308594 167.679688 Z M 111.097656 170.792969 L 93.207031 174.605469 L 100.738281 179.652344 L 93.207031 174.605469 Z M 128.8125 198.457031 L 100.234375 173.800781 L 116.386719 171.953125 L 97.449219 155.574219 L 110.347656 152.824219 L 122.417969 165.472656 L 113.074219 160.8125 C 113.074219 160.8125 128.214844 173.570312 128.410156 173.960938 L 114.308594 176.96875 Z M 128.8125 198.457031 " fill-opacity="1" fill-rule="nonzero"/></g></g></g><g transform="matrix(1, 0, 0, 1, 330, 185)"><g clip-path="url(#c9d439b522)"><g fill="#004aad" fill-opacity="1"><g transform="translate(0.565702, 32.904724)"><g><path d="M 18.734375 -4.40625 L 18.734375 0 L 1.09375 0 L 1.09375 -3.5 L 10.09375 -12 C 11.050781 -12.90625 11.695312 -13.6875 12.03125 -14.34375 C 12.363281 -15 12.53125 -15.648438 12.53125 -16.296875 C 12.53125 -17.234375 12.210938 -17.953125 11.578125 -18.453125 C 10.941406 -18.953125 10.015625 -19.203125 8.796875 -19.203125 C 7.773438 -19.203125 6.851562 -19.003906 6.03125 -18.609375 C 5.207031 -18.222656 4.519531 -17.640625 3.96875 -16.859375 L 0.03125 -19.390625 C 0.945312 -20.753906 2.203125 -21.816406 3.796875 -22.578125 C 5.398438 -23.347656 7.234375 -23.734375 9.296875 -23.734375 C 11.023438 -23.734375 12.539062 -23.445312 13.84375 -22.875 C 15.144531 -22.3125 16.15625 -21.515625 16.875 -20.484375 C 17.601562 -19.453125 17.96875 -18.234375 17.96875 -16.828125 C 17.96875 -15.566406 17.695312 -14.378906 17.15625 -13.265625 C 16.625 -12.148438 15.59375 -10.882812 14.0625 -9.46875 L 8.703125 -4.40625 Z M 18.734375 -4.40625 "/></g></g></g><g fill="#004aad" fill-opacity="1"><g transform="translate(20.788941, 32.904724)"><g><path d="M 11.296875 0.40625 C 9.367188 0.40625 7.644531 -0.0703125 6.125 -1.03125 C 4.613281 -1.988281 3.429688 -3.375 2.578125 -5.1875 C 1.722656 -7 1.296875 -9.160156 1.296875 -11.671875 C 1.296875 -14.179688 1.722656 -16.335938 2.578125 -18.140625 C 3.429688 -19.953125 4.613281 -21.335938 6.125 -22.296875 C 7.644531 -23.253906 9.367188 -23.734375 11.296875 -23.734375 C 13.234375 -23.734375 14.957031 -23.253906 16.46875 -22.296875 C 17.976562 -21.335938 19.160156 -19.953125 20.015625 -18.140625 C 20.867188 -16.335938 21.296875 -14.179688 21.296875 -11.671875 C 21.296875 -9.160156 20.867188 -7 20.015625 -5.1875 C 19.160156 -3.375 17.976562 -1.988281 16.46875 -1.03125 C 14.957031 -0.0703125 13.234375 0.40625 11.296875 0.40625 Z M 11.296875 -4.171875 C 12.722656 -4.171875 13.835938 -4.78125 14.640625 -6 C 15.453125 -7.21875 15.859375 -9.109375 15.859375 -11.671875 C 15.859375 -14.222656 15.453125 -16.109375 14.640625 -17.328125 C 13.835938 -18.546875 12.722656 -19.15625 11.296875 -19.15625 C 9.898438 -19.15625 8.796875 -18.546875 7.984375 -17.328125 C 7.171875 -16.109375 6.765625 -14.222656 6.765625 -11.671875 C 6.765625 -9.109375 7.171875 -7.21875 7.984375 -6 C 8.796875 -4.78125 9.898438 -4.171875 11.296875 -4.171875 Z M 11.296875 -4.171875 "/></g></g></g><g fill="#004aad" fill-opacity="1"><g transform="translate(3.351264, 72.521605)"><g><path d="M 18.734375 -4.40625 L 18.734375 0 L 1.09375 0 L 1.09375 -3.5 L 10.09375 -12 C 11.050781 -12.90625 11.695312 -13.6875 12.03125 -14.34375 C 12.363281 -15 12.53125 -15.648438 12.53125 -16.296875 C 12.53125 -17.234375 12.210938 -17.953125 11.578125 -18.453125 C 10.941406 -18.953125 10.015625 -19.203125 8.796875 -19.203125 C 7.773438 -19.203125 6.851562 -19.003906 6.03125 -18.609375 C 5.207031 -18.222656 4.519531 -17.640625 3.96875 -16.859375 L 0.03125 -19.390625 C 0.945312 -20.753906 2.203125 -21.816406 3.796875 -22.578125 C 5.398438 -23.347656 7.234375 -23.734375 9.296875 -23.734375 C 11.023438 -23.734375 12.539062 -23.445312 13.84375 -22.875 C 15.144531 -22.3125 16.15625 -21.515625 16.875 -20.484375 C 17.601562 -19.453125 17.96875 -18.234375 17.96875 -16.828125 C 17.96875 -15.566406 17.695312 -14.378906 17.15625 -13.265625 C 16.625 -12.148438 15.59375 -10.882812 14.0625 -9.46875 L 8.703125 -4.40625 Z M 18.734375 -4.40625 "/></g></g></g><g fill="#004aad" fill-opacity="1"><g transform="translate(23.574503, 72.521605)"><g><path d="M 9.296875 -14.5625 C 12.585938 -14.5625 15.015625 -13.90625 16.578125 -12.59375 C 18.148438 -11.28125 18.9375 -9.523438 18.9375 -7.328125 C 18.9375 -5.910156 18.578125 -4.617188 17.859375 -3.453125 C 17.148438 -2.285156 16.066406 -1.347656 14.609375 -0.640625 C 13.160156 0.0546875 11.367188 0.40625 9.234375 0.40625 C 7.585938 0.40625 5.96875 0.1875 4.375 -0.25 C 2.789062 -0.6875 1.441406 -1.300781 0.328125 -2.09375 L 2.46875 -6.234375 C 3.351562 -5.566406 4.375 -5.046875 5.53125 -4.671875 C 6.6875 -4.304688 7.875 -4.125 9.09375 -4.125 C 10.445312 -4.125 11.515625 -4.390625 12.296875 -4.921875 C 13.078125 -5.460938 13.46875 -6.210938 13.46875 -7.171875 C 13.46875 -8.171875 13.0625 -8.925781 12.25 -9.4375 C 11.4375 -9.945312 10.03125 -10.203125 8.03125 -10.203125 L 2.0625 -10.203125 L 3.265625 -23.328125 L 17.5 -23.328125 L 17.5 -19 L 7.765625 -19 L 7.40625 -14.5625 Z M 9.296875 -14.5625 "/></g></g></g></g></g></svg>